<svg width="60" height="61" viewBox="0 0 60 61" fill="none" xmlns="http://www.w3.org/2000/svg">
<g clip-path="url(#clip0_189_3187)">
<mask id="mask0_189_3187" style="mask-type:luminance" maskUnits="userSpaceOnUse" x="0" y="0" width="60" height="61">
<path d="M60 0.5H0V60.5H60V0.5Z" fill="white"/>
</mask>
<g mask="url(#mask0_189_3187)">
<path opacity="0.4" d="M16.825 49.75C18.875 47.55 22 47.725 23.8 50.125L26.325 53.5C28.35 56.175 31.625 56.175 33.65 53.5L36.175 50.125C37.975 47.725 41.1 47.55 43.15 49.75C47.6 54.5 51.225 52.925 51.225 46.275V18.1C51.25 8.025 48.9 5.5 39.45 5.5H20.55C11.1 5.5 8.75 8.025 8.75 18.1V46.25C8.75 52.925 12.4 54.475 16.825 49.75Z" fill="white"/>
<path d="M40 19.875H20C18.975 19.875 18.125 19.025 18.125 18C18.125 16.975 18.975 16.125 20 16.125H40C41.025 16.125 41.875 16.975 41.875 18C41.875 19.025 41.025 19.875 40 19.875Z" fill="white"/>
<path d="M37.5 29.875H22.5C21.475 29.875 20.625 29.025 20.625 28C20.625 26.975 21.475 26.125 22.5 26.125H37.5C38.525 26.125 39.375 26.975 39.375 28C39.375 29.025 38.525 29.875 37.5 29.875Z" fill="white"/>
</g>
</g>
<defs>
<clipPath id="clip0_189_3187">
<rect width="60" height="60" fill="white" transform="translate(0 0.5)"/>
</clipPath>
</defs>
</svg>
