<svg width="60" height="61" viewBox="0 0 60 61" fill="none" xmlns="http://www.w3.org/2000/svg">
<g clip-path="url(#clip0_189_3199)">
<mask id="mask0_189_3199" style="mask-type:luminance" maskUnits="userSpaceOnUse" x="0" y="0" width="60" height="61">
<path d="M60 0.5H0V60.5H60V0.5Z" fill="white"/>
</mask>
<g mask="url(#mask0_189_3199)">
<path d="M42.5 52.375H17.4999C6.87493 52.375 3.39993 49.2 3.14993 39.3C3.14993 38.8 3.32493 38.3 3.67493 37.95C4.02493 37.6 4.49993 37.375 5.02493 37.375C8.79993 37.375 11.8749 34.275 11.8749 30.5C11.8749 26.725 8.79993 23.625 5.02493 23.625C4.52493 23.625 4.04993 23.425 3.67493 23.05C3.29993 22.675 3.12493 22.2 3.14993 21.7C3.39993 11.8 6.87493 8.625 17.4999 8.625H42.5C53.525 8.625 56.875 11.975 56.875 23V38C56.875 49.025 53.525 52.375 42.5 52.375ZM6.97493 40.95C7.39993 47.3 9.54993 48.625 17.4999 48.625H42.5C51.45 48.625 53.125 46.925 53.125 38V23C53.125 14.075 51.45 12.375 42.5 12.375H17.4999C9.54993 12.375 7.39993 13.725 6.97493 20.05C11.8999 21 15.6249 25.325 15.6249 30.5C15.6249 35.675 11.8999 40 6.97493 40.95Z" fill="white"/>
<path opacity="0.4" d="M22.5 21.125C21.475 21.125 20.625 20.275 20.625 19.25V10.5C20.625 9.475 21.475 8.625 22.5 8.625C23.525 8.625 24.375 9.475 24.375 10.5V19.25C24.375 20.275 23.525 21.125 22.5 21.125Z" fill="white"/>
<path opacity="0.4" d="M22.5 52.375C21.475 52.375 20.625 51.525 20.625 50.5V41.75C20.625 40.725 21.475 39.875 22.5 39.875C23.525 39.875 24.375 40.725 24.375 41.75V50.5C24.375 51.525 23.525 52.375 22.5 52.375Z" fill="white"/>
<path opacity="0.4" d="M32.5997 39.624C31.9997 39.624 31.3997 39.424 30.8997 39.074C29.9997 38.424 29.5497 37.324 29.7497 36.224L30.2747 33.249L28.0997 31.124C27.2997 30.349 27.0247 29.199 27.3497 28.149C27.6997 27.099 28.5997 26.324 29.6997 26.174L32.6997 25.724L34.0497 22.999C34.5497 21.999 35.5497 21.374 36.6497 21.374C37.7747 21.374 38.7747 21.999 39.2497 22.999L40.5997 25.724L43.5997 26.174C44.6997 26.324 45.5997 27.099 45.9497 28.149C46.2997 29.199 45.9997 30.349 45.1997 31.124L43.0247 33.249L43.5497 36.224C43.7497 37.324 43.2997 38.424 42.3997 39.074C41.4997 39.724 40.3247 39.799 39.3497 39.299L36.6747 37.899L33.9747 39.299C33.5497 39.524 33.0747 39.624 32.5997 39.624ZM31.9247 29.624L33.1997 30.874C33.8997 31.549 34.1997 32.499 34.0497 33.449L33.7497 35.199L35.3247 34.374C36.1747 33.924 37.1747 33.924 38.0247 34.374L39.5997 35.199L39.2997 33.449C39.1497 32.474 39.4497 31.524 40.1497 30.874L41.4247 29.624L39.6747 29.374C38.7247 29.224 37.8997 28.624 37.4747 27.774L36.6997 26.174L35.9247 27.774C35.4997 28.624 34.6747 29.224 33.7247 29.374L31.9247 29.624Z" fill="white"/>
</g>
</g>
<defs>
<clipPath id="clip0_189_3199">
<rect width="60" height="60" fill="white" transform="translate(0 0.5)"/>
</clipPath>
</defs>
</svg>
